<svg width="382" height="364" viewBox="0 0 382 364" fill="none" xmlns="http://www.w3.org/2000/svg">
<path d="M33.976 169.193C33.5177 169.193 33.2428 127.276 33.2428 76.0962V-0.000396729H16.7464H0.25V173.32V363.641H190.875H381.5V239.359V115.169L374.901 118.196C371.236 119.847 345.574 132.046 317.989 145.254C290.312 158.37 267.4 169.193 266.85 169.193C266.392 169.193 265.934 157.819 265.842 142.319L265.567 115.444L208.288 142.319C176.853 157.086 150.734 169.193 150.367 169.193C150.001 169.193 149.542 157.086 149.451 142.227L149.176 115.353L91.8966 142.227C60.3702 156.994 34.3425 169.101 33.976 169.193Z" fill="#FF553B"/>
</svg>
