<svg width="550" height="119" viewBox="0 0 550 119" fill="none" xmlns="http://www.w3.org/2000/svg">
<g clip-path="url(#clip0_18_96073)">
<path d="M353.394 1.54395C340.095 1.54395 327.596 6.60235 318.223 15.9965C308.849 6.60235 296.351 1.54395 283.052 1.54395H259.658C246.358 1.54395 233.86 6.60235 224.486 15.9965C215.113 6.60235 202.615 1.54395 189.315 1.54395H1.04138V117.165H196.606C209.825 117.165 222.483 112.187 231.857 102.792C241.231 112.106 253.649 117.165 266.868 117.165H290.262C303.481 117.165 316.14 112.187 325.513 102.792C334.887 112.106 347.305 117.165 360.524 117.165H548.878V1.54395H353.394Z" fill="#010101"/>
<path d="M196.606 118.208H0V0.580078H189.395C203.015 0.580078 215.754 5.79906 225.288 15.3538L223.846 16.7991C214.712 7.64577 202.535 2.66768 189.395 2.66768H2.00291V116.281H196.606C209.825 116.281 222.163 111.223 231.296 102.15L274.319 58.7919L275.761 60.2371L232.739 103.595C223.205 112.989 210.386 118.208 196.606 118.208Z" fill="white"/>
<path d="M181.944 60.0768L180.502 58.6315L223.765 15.2737C233.219 5.79927 245.958 0.5 259.658 0.5H283.052C296.671 0.5 309.41 5.71898 318.944 15.2737L317.502 16.719C308.368 7.56572 296.191 2.5876 283.052 2.5876H259.658C246.518 2.5876 234.341 7.64601 225.207 16.719L181.944 60.0768Z" fill="white"/>
<path d="M290.342 118.209H266.948C253.328 118.209 240.59 112.99 231.056 103.435L232.498 101.99C241.631 111.143 253.809 116.121 266.948 116.121H290.342C303.642 116.121 315.899 111.063 325.033 101.99L368.055 58.6318L369.497 60.0771L326.475 103.435C316.941 112.909 304.122 118.209 290.342 118.209Z" fill="white"/>
<path d="M550 118.208H360.604C346.985 118.208 334.246 112.989 324.712 103.435L326.154 101.989C335.288 111.143 347.465 116.121 360.604 116.121H547.997V2.5876H353.394C340.255 2.5876 328.077 7.64601 318.944 16.719L275.681 60.0768L274.239 58.6315L317.502 15.2737C326.955 5.79928 339.694 0.5 353.394 0.5H550V118.208Z" fill="white"/>
<path d="M16.8408 26.1521H17.8336C18.7095 26.1521 19.1767 25.918 19.527 25.3913L15.3226 17.0225H17.5416L20.5782 23.343L23.3811 17.0225H25.425L21.6293 25.5083C20.8701 27.264 20.0526 27.9663 18.1839 27.9663H17.016V26.1521H16.8408Z" fill="white"/>
<path d="M31.2061 22.3481C32.6076 22.3481 33.2499 21.7629 33.2499 20.5339C33.2499 19.3634 32.666 18.7196 31.2061 18.7196H28.6951V22.3481H31.2061ZM26.7097 17.0225H31.3813C33.8923 17.0225 35.177 18.0759 35.177 20.5339C35.177 22.9918 33.8339 24.1038 31.3813 24.1038H28.6951V28.0249H26.7097V17.0225Z" fill="white"/>
<path d="M42.2426 23.4015L40.5491 18.7782L38.9141 23.4015H42.2426ZM39.3228 17.0225H41.8338L45.9799 27.9663H43.8777L42.885 25.2157H38.2717L37.279 27.9663H35.2352L39.3228 17.0225Z" fill="white"/>
<path d="M46.5056 26.0936H47.0312C47.9655 26.0936 48.6079 25.7424 48.6662 24.2208C48.7246 22.5237 48.7246 19.4804 48.7246 17.0225H56.608V27.9663H54.6226V18.8367H50.6517C50.6517 20.5924 50.5933 22.9333 50.5933 24.4549C50.5349 26.9714 49.5422 27.9663 47.3815 27.9663H46.564V26.0936H46.5056Z" fill="white"/>
<path d="M63.6737 26.2106C65.1336 26.2106 65.7175 25.6254 65.7175 24.3964C65.7175 23.1674 65.1336 22.6407 63.6737 22.6407H61.1043V26.1521H63.6737V26.2106ZM59.1772 17.0225H61.1627V20.9435H63.9073C66.3599 20.9435 67.703 21.997 67.703 24.4549C67.703 26.7373 66.3599 27.9663 63.8489 27.9663H59.2356V17.0225H59.1772Z" fill="white"/>
<path d="M69.1629 22.5234C69.1629 18.7779 71.3235 16.8467 74.4185 16.8467C77.2215 16.8467 78.7981 18.1927 79.2069 20.4751L77.2799 20.7677C76.9295 19.4802 76.1119 18.6024 74.4185 18.6024C72.3746 18.6024 71.1483 20.0655 71.1483 22.5234C71.1483 24.9814 72.3163 26.386 74.3601 26.386C76.112 26.386 76.9879 25.5081 77.2799 24.1621L79.2069 24.4547C78.7397 26.7956 77.1631 28.0831 74.3601 28.0831C71.2067 28.1417 69.1629 26.0934 69.1629 22.5234Z" fill="white"/>
<path d="M81.2509 17.0225H83.2363V21.5288H84.9882L87.9663 17.0225H90.2437L86.6232 22.2896L90.4189 27.9663H87.9663L84.9298 23.2845H83.2363V27.9663H81.2509V17.0225Z" fill="white"/>
<path d="M97.7767 23.4015L96.0832 18.7782L94.4481 23.4015H97.7767ZM94.8569 17.0225H97.3679L101.514 27.9663H99.4117L98.419 25.2157H93.8058L92.8131 27.9663H90.7692L94.8569 17.0225Z" fill="white"/>
<path d="M106.653 22.2896H109.339V18.7196H106.653C105.251 18.7196 104.667 19.2463 104.667 20.4753C104.667 21.7043 105.251 22.2896 106.653 22.2896ZM109.339 24.0453H106.945L104.492 27.9663H102.273L104.959 23.8112C103.499 23.4015 102.682 22.2896 102.682 20.4753C102.682 18.1929 104.142 17.0225 106.536 17.0225H111.324V27.9663H109.339V24.0453Z" fill="white"/>
<path d="M16.432 35.5156H18.3591V43.7674L23.7898 35.5156H25.8921V46.4595H23.965V38.2077L18.4758 46.4595H16.432V35.5156Z" fill="white"/>
<path d="M28.4615 35.5156H30.447V40.0804H35.761V35.5156H37.688V46.4595H35.761V41.8947H30.447V46.4595H28.4615V35.5156Z" fill="white"/>
<path d="M47.2647 44.6453V37.3884H43.4106C43.4106 38.6174 43.3522 40.139 43.2938 41.368C43.2354 42.6555 42.9435 43.7674 42.3595 44.6453H47.2647ZM39.1478 44.6453H40.2573C40.958 44.06 41.4252 42.7725 41.4836 41.2509C41.542 39.5537 41.542 37.7395 41.542 35.5156H49.2502V44.6453H50.7684V48.8004H48.8998V46.518H41.0748V48.8004H39.2062V44.6453H39.1478Z" fill="white"/>
<path d="M52.462 44.6453H53.4547C54.3307 44.6453 54.7978 44.4112 55.1482 43.8845L50.9437 35.5156H53.1628L56.1993 41.8361L59.0023 35.5156H61.0461L57.2504 44.0015C56.4913 45.7572 55.6738 46.4595 53.8051 46.4595H52.6372V44.6453H52.462Z" fill="white"/>
<path d="M61.3964 41.0166C61.3964 37.2711 63.5571 35.3398 66.652 35.3398C69.455 35.3398 71.0317 36.6859 71.4404 38.9683L69.5134 39.2609C69.163 37.9734 68.3455 37.0955 66.652 37.0955C64.6082 37.0955 63.3819 38.5586 63.3819 41.0166C63.3819 43.4746 64.5498 44.8791 66.5936 44.8791C68.3455 44.8791 69.2214 44.0013 69.5134 42.6553L71.4404 42.9479C70.9733 45.2888 69.3966 46.5763 66.5936 46.5763C63.4403 46.6348 61.3964 44.645 61.3964 41.0166Z" fill="white"/>
<path d="M76.3457 37.3884H72.4916V35.5156H82.1852V37.3884H78.3311V46.4595H76.3457V37.3884Z" fill="white"/>
<path d="M88.2582 40.8413C89.6597 40.8413 90.3021 40.256 90.3021 39.027C90.3021 37.8566 89.7181 37.2128 88.2582 37.2128H85.7472V40.8413H88.2582ZM83.7618 35.5156H88.4334C90.9444 35.5156 92.2291 36.569 92.2291 39.027C92.2291 41.485 90.886 42.597 88.4334 42.597H85.7472V46.518H83.7618V35.5156Z" fill="white"/>
<path d="M94.1563 35.5156H96.0834V43.7674L101.514 35.5156H103.616V46.4595H101.689V38.2077L96.2001 46.4595H94.1563V35.5156Z" fill="white"/>
<path d="M112.317 41.9532L110.624 37.3299L108.93 41.9532H112.317ZM109.397 35.5156H111.908L116.054 46.4595H113.952L112.959 43.7089H108.346L107.353 46.4595H105.31L109.397 35.5156Z" fill="white"/>
<path d="M116.58 44.5867H117.106C118.04 44.5867 118.682 44.2356 118.741 42.714C118.799 41.0168 118.799 37.9736 118.799 35.5156H126.682V46.4595H124.697V37.3299H120.726C120.726 39.0856 120.668 41.4265 120.668 42.9481C120.609 45.4646 119.617 46.4595 117.456 46.4595H116.638V44.5867H116.58Z" fill="white"/>
<path d="M133.748 44.7623C135.208 44.7623 135.792 44.1771 135.792 42.9481C135.792 41.7191 135.208 41.1924 133.748 41.1924H131.179V44.7038H133.748V44.7623ZM129.252 35.5156H131.237V39.4367H133.982C136.434 39.4367 137.777 40.4901 137.777 42.9481C137.777 45.2305 136.434 46.4595 133.923 46.4595H129.31V35.5156H129.252Z" fill="white"/>
<path d="M139.705 35.5156H141.69V40.0804H147.004V35.5156H148.931V46.4595H147.004V41.8947H141.69V46.4595H139.705V35.5156Z" fill="white"/>
<path d="M157.632 41.9532L155.938 37.3299L154.303 41.9532H157.632ZM154.712 35.5156H157.223L161.369 46.4595H159.267L158.274 43.7089H153.661L152.668 46.4595H150.624L154.712 35.5156Z" fill="white"/>
<path d="M166.508 40.7827H169.194V37.2713H166.508C165.107 37.2713 164.523 37.798 164.523 39.027C164.523 40.256 165.107 40.7827 166.508 40.7827ZM169.194 42.5384H166.8L164.347 46.4595H162.128L164.815 42.3043C163.355 41.8947 162.537 40.7827 162.537 38.9685C162.537 36.6861 163.997 35.5156 166.391 35.5156H171.18V46.4595H169.194V42.5384Z" fill="white"/>
<path d="M20.9868 63.2555C22.3883 63.2555 22.9139 62.7874 22.9139 61.6754C22.9139 60.5635 22.3299 60.0953 20.9868 60.0953H18.3591V63.2555H20.9868ZM16.432 54.0674H24.257V55.8231H18.4174V58.3981H21.162C23.673 58.3981 24.9577 59.276 24.9577 61.6754C24.9577 64.0749 23.673 64.9527 21.162 64.9527H16.432V54.0674Z" fill="white"/>
<path d="M26.9432 54.0674H28.8702V62.2607L34.301 54.0674H36.4616V65.0112H34.4762V56.7009L28.987 65.0112H26.9432V54.0674Z" fill="white"/>
<path d="M39.0309 54.0674H46.7975V55.7646H40.9579V58.6322H46.5639V60.3294H40.9579V63.2555H46.7391V65.0112H39.0309V54.0674Z" fill="white"/>
<path d="M49.075 54.0674H51.0604V58.5737H56.3744V54.0674H58.3014V65.0112H56.3744V60.3879H51.0604V65.0112H49.075V54.0674Z" fill="white"/>
<path d="M60.871 54.0674H62.8564V58.5737H68.1704V54.0674H70.0974V65.0112H68.1704V60.3879H62.8564V65.0112H60.871V54.0674Z" fill="white"/>
<path d="M78.7397 60.4464L77.0462 55.8231L75.4111 60.4464H78.7397ZM75.8199 54.0674H78.3309L82.477 65.0112H80.3748L79.382 62.2607H74.7688L73.7761 65.0112H71.7322L75.8199 54.0674Z" fill="white"/>
<path d="M83.0612 63.1385H83.5867C84.521 63.1385 85.1634 62.7874 85.2218 61.2657C85.2802 59.5686 85.2802 56.5254 85.2802 54.0674H93.1636V65.0112H91.1781V55.8816H87.2072C87.2072 57.6373 87.1488 59.9782 87.1488 61.4998C87.0904 64.0163 86.0977 65.0112 83.9371 65.0112H83.1196V63.1385H83.0612Z" fill="white"/>
<path d="M95.7328 54.0674H103.499V55.7646H97.6598V58.6322H103.266V60.3294H97.6598V63.2555H103.441V65.0112H95.7328V54.0674Z" fill="white"/>
<path d="M15.9647 78.0625C15.9647 74.317 18.1254 72.3857 21.2203 72.3857C24.0233 72.3857 25.6 73.7318 26.0087 76.0142L24.0817 76.3068C23.7313 75.0193 22.9138 74.1414 21.2203 74.1414C19.1765 74.1414 17.9502 75.6045 17.9502 78.0625C17.9502 80.5205 19.1181 81.925 21.1619 81.925C22.9138 81.925 23.7897 81.0472 24.0817 79.7012L26.0087 79.9938C25.5416 82.3347 23.9649 83.6222 21.1619 83.6222C18.0086 83.6222 15.9647 81.6324 15.9647 78.0625Z" fill="white"/>
<path d="M32.8995 81.925C35.0602 81.925 36.2865 80.4034 36.2865 78.0625C36.2865 75.7216 35.0602 74.2 32.8995 74.2C30.7389 74.2 29.5126 75.7216 29.5126 78.0625C29.5126 80.4034 30.7389 81.925 32.8995 81.925ZM27.5272 78.004C27.5272 74.317 29.6878 72.3857 32.8995 72.3857C36.1113 72.3857 38.2719 74.317 38.2719 78.004C38.2719 81.6909 36.1113 83.6222 32.8995 83.6222C29.7462 83.6222 27.5272 81.7495 27.5272 78.004Z" fill="white"/>
<path d="M44.9874 81.8072C46.3889 81.8072 47.0312 81.2805 47.0312 80.2856C47.0312 79.2322 46.4473 78.764 44.9874 78.764H42.3596V81.8072H44.9874ZM44.929 77.1254C46.2721 77.1254 46.7392 76.5401 46.7392 75.6623C46.7392 74.6674 46.3305 74.1992 44.929 74.1992H42.3012V77.1254H44.929ZM40.3741 72.5605H45.1626C47.44 72.5605 48.6079 73.614 48.6079 75.4867C48.6079 76.5987 48.1407 77.535 47.0312 77.9447C48.2575 78.2373 48.8999 79.1737 48.8999 80.4612C48.8999 82.451 47.5568 83.5044 45.1626 83.5044H40.3741V72.5605Z" fill="white"/>
<path d="M55.4983 77.8862C56.8998 77.8862 57.5422 77.3009 57.5422 76.0719C57.5422 74.9015 56.9582 74.2577 55.4983 74.2577H52.9873V77.8862H55.4983ZM51.0019 72.5605H55.6735C58.1845 72.5605 59.4692 73.614 59.4692 76.0719C59.4692 78.5299 58.1261 79.6419 55.6735 79.6419H52.9873V83.5629H51.0019V72.5605Z" fill="white"/>
<path d="M61.3964 72.5605H69.163V74.2577H63.3235V77.1254H68.9294V78.8226H63.3235V81.7487H69.1046V83.5044H61.3964V72.5605Z" fill="white"/>
<path d="M71.4403 72.5605H74.1849L77.3966 80.1686L80.6084 72.5605H83.353V83.5044H81.4259V74.9015L78.2142 82.3925H76.5207L73.2506 74.843V83.5044H71.4403V72.5605Z" fill="white"/>
<path d="M85.9225 72.5605H93.6891V74.2577H87.9079V77.1254H93.5139V78.8226H87.9079V81.7487H93.6891V83.5044H85.9225V72.5605Z" fill="white"/>
<path d="M96.0248 72.5605H97.9518V77.0669H103.266V72.5605H105.251V83.5044H103.266V78.8811H97.9518V83.5044H96.0248V72.5605Z" fill="white"/>
<path d="M107.821 72.5605H109.748V77.0669H115.062V72.5605H117.047V83.5044H115.062V78.8811H109.748V83.5044H107.821V72.5605Z" fill="white"/>
<path d="M124.522 81.925C126.682 81.925 127.909 80.4034 127.909 78.0625C127.909 75.7216 126.682 74.2 124.522 74.2C122.361 74.2 121.135 75.7216 121.135 78.0625C121.135 80.4034 122.361 81.925 124.522 81.925ZM119.149 78.004C119.149 74.317 121.31 72.3857 124.522 72.3857C127.734 72.3857 129.894 74.317 129.894 78.004C129.894 81.6909 127.734 83.6222 124.522 83.6222C121.31 83.6222 119.149 81.7495 119.149 78.004Z" fill="white"/>
<path d="M131.996 72.5605H139.237V74.3748H133.923V83.5044H131.996V72.5605Z" fill="white"/>
<path d="M145.369 81.925C147.53 81.925 148.756 80.4034 148.756 78.0625C148.756 75.7216 147.53 74.2 145.369 74.2C143.208 74.2 141.982 75.7216 141.982 78.0625C141.982 80.4034 143.208 81.925 145.369 81.925ZM139.997 78.004C139.997 74.317 142.157 72.3857 145.369 72.3857C148.581 72.3857 150.741 74.317 150.741 78.004C150.741 81.6909 148.581 83.6222 145.369 83.6222C142.157 83.6222 139.997 81.7495 139.997 78.004Z" fill="white"/>
<path d="M16.432 91.0547H18.3591V99.3065L23.7898 91.0547H25.8921V101.999H23.965V93.6882L18.4758 101.999H16.432V91.0547Z" fill="white"/>
<path d="M27.9942 96.5557C27.9942 92.8102 30.1548 90.8789 33.2498 90.8789C36.0528 90.8789 37.6294 92.225 38.0382 94.5074L36.1112 94.8C35.7608 93.5125 34.9432 92.6346 33.2498 92.6346C31.2059 92.6346 29.9796 94.0977 29.9796 96.5557C29.9796 99.0137 31.1476 100.418 33.1914 100.418C34.9432 100.418 35.8192 99.5404 36.1112 98.1943L38.0382 98.5455C37.571 100.886 35.9944 102.174 33.1914 102.174C30.038 102.174 27.9942 100.126 27.9942 96.5557Z" fill="white"/>
<path d="M40.0822 91.0547H42.0676V95.561H43.8195L46.7976 91.0547H49.075L45.4545 96.3218L49.2502 101.999H46.7976L43.7611 97.3167H42.0676V101.999H40.0822V91.0547Z" fill="white"/>
<path d="M51.1772 100.184H52.1699C53.0459 100.184 53.513 99.9502 53.8634 99.4235L49.6589 91.0547H51.878L54.9145 97.3752L57.7175 91.0547H59.7613L55.9656 99.5406C55.2065 101.296 54.389 101.999 52.5203 101.999H51.3524V100.184H51.1772Z" fill="white"/>
<path d="M60.1116 96.5557C60.1116 92.8102 62.2723 90.8789 65.3672 90.8789C68.1702 90.8789 69.7469 92.225 70.1556 94.5074L68.2286 94.8C67.8782 93.5125 67.0607 92.6346 65.3672 92.6346C63.3234 92.6346 62.0971 94.0977 62.0971 96.5557C62.0971 99.0137 63.265 100.418 65.3088 100.418C67.0607 100.418 67.9366 99.5404 68.2286 98.1943L70.1556 98.5455C69.6885 100.886 68.1118 102.174 65.3088 102.174C62.1555 102.174 60.1116 100.126 60.1116 96.5557Z" fill="white"/>
<path d="M71.7322 96.5557C71.7322 92.8102 73.8929 90.8789 76.9878 90.8789C79.7908 90.8789 81.3675 92.225 81.7762 94.5074L79.8492 94.8C79.4988 93.5125 78.6813 92.6346 76.9878 92.6346C74.944 92.6346 73.7177 94.0977 73.7177 96.5557C73.7177 99.0137 74.8856 100.418 76.9294 100.418C78.6813 100.418 79.5572 99.5404 79.8492 98.1943L81.7762 98.5455C81.3091 100.886 79.7324 102.174 76.9294 102.174C73.7761 102.174 71.7322 100.126 71.7322 96.5557Z" fill="white"/>
<path d="M86.7399 92.8689H82.8274V91.0547H92.521V92.8689H88.6669V101.999H86.7399V92.8689Z" fill="white"/>
<path d="M98.7112 100.301C100.113 100.301 100.755 99.7746 100.755 98.7797C100.755 97.7263 100.171 97.2581 98.7112 97.2581H96.0834V100.301H98.7112ZM98.6528 95.678C99.9958 95.678 100.463 95.0928 100.463 94.2149C100.463 93.22 100.054 92.7518 98.6528 92.7518H96.0834V95.678H98.6528ZM94.1563 91.0547H98.9447C101.222 91.0547 102.39 92.1081 102.39 93.9809C102.39 95.0928 101.923 96.0291 100.813 96.4388C102.04 96.7314 102.682 97.6678 102.682 98.9553C102.682 100.945 101.339 101.999 98.9447 101.999H94.1563V91.0547Z" fill="white"/>
<path d="M110.624 97.4337L108.93 92.8104L107.295 97.4337H110.624ZM107.704 91.0547H110.215L114.361 101.999H112.259L111.266 99.248H106.653L105.66 101.999H103.616L107.704 91.0547Z" fill="white"/>
<path d="M417.608 18.8367H413.695V17.0225H423.389V18.8367H419.535V27.9663H417.608V18.8367Z" fill="white"/>
<path d="M425.024 17.0225H426.951V21.5288H432.265V17.0225H434.251V27.9663H432.265V23.343H426.951V27.9663H425.024V17.0225Z" fill="white"/>
<path d="M436.82 17.0225H444.587V18.7782H438.747V21.5873H444.353V23.2845H438.747V26.2106H444.528V27.9663H436.82V17.0225Z" fill="white"/>
<path d="M450.134 23.5771V17.0225H452.12V23.6356C452.12 25.5084 452.937 26.3862 454.806 26.3862C456.674 26.3862 457.434 25.5084 457.434 23.6356V17.0225H459.419V23.5771C459.419 26.6788 457.901 28.0834 454.864 28.0834C451.828 28.0834 450.134 26.7373 450.134 23.5771Z" fill="white"/>
<path d="M466.31 22.3481C467.77 22.3481 468.354 21.7043 468.354 20.5339C468.354 19.2463 467.77 18.7196 466.31 18.7196H463.799V22.2896H466.31V22.3481ZM461.872 17.0225H466.543C468.938 17.0225 470.339 18.0759 470.339 20.5339C470.339 22.231 469.58 23.2845 468.237 23.7526L470.806 27.9663H468.587L466.251 24.0453H463.857V27.9663H461.872V17.0225Z" fill="white"/>
<path d="M478.456 23.4015L476.762 18.7782L475.127 23.4015H478.456ZM475.536 17.0225H478.047L482.193 27.9663H480.091L479.098 25.2157H474.485L473.492 27.9663H471.448L475.536 17.0225Z" fill="white"/>
<path d="M483.828 17.0225H485.814V26.1521H491.478V27.9663H483.828V17.0225Z" fill="white"/>
<path d="M407.447 35.5156H405.462V46.4595H407.447V35.5156Z" fill="white"/>
<path d="M409.958 35.5156H412.177L417.666 43.7089V35.5156H419.593V46.4595H417.316L411.885 38.4418V46.4595H409.958V35.5156Z" fill="white"/>
<path d="M426.25 44.7038C428.703 44.7038 429.813 43.3577 429.813 41.0168C429.813 38.5003 428.645 37.3299 426.25 37.3299H424.148V44.7038H426.25ZM422.163 35.5156H426.309C429.871 35.5156 431.798 37.3884 431.798 40.9583C431.798 44.5867 429.871 46.4595 426.134 46.4595H422.104V35.5156H422.163Z" fill="white"/>
<path d="M433.783 42.1288V35.5156H435.769V42.1288C435.769 44.0015 436.586 44.8794 438.455 44.8794C440.324 44.8794 441.083 44.0015 441.083 42.1288V35.5156H443.068V42.0702C443.068 45.172 441.55 46.5765 438.513 46.5765C435.477 46.5765 433.783 45.2305 433.783 42.1288Z" fill="white"/>
<path d="M444.995 43.533L446.981 43.1819C447.273 44.2938 447.974 44.9376 449.667 44.9376C451.361 44.9376 452.061 44.3524 452.061 43.416C452.061 42.6552 451.653 42.2455 450.426 42.0114L448.558 41.6603C446.514 41.3092 445.404 40.4898 445.404 38.5586C445.404 36.5102 447.098 35.2812 449.667 35.2812C452.353 35.2812 453.638 36.4517 453.988 38.3245L452.003 38.6756C451.828 37.7392 451.185 36.9784 449.609 36.9784C448.207 36.9784 447.39 37.6222 447.39 38.5C447.39 39.2608 447.857 39.6705 449.142 39.9046L451.185 40.2557C453.054 40.6069 454.047 41.4847 454.047 43.2989C454.047 45.4058 452.353 46.5762 449.609 46.5762C446.864 46.5762 445.346 45.6399 444.995 43.533Z" fill="white"/>
<path d="M458.952 37.3884H455.098V35.5156H464.791V37.3884H460.937V46.4595H458.952V37.3884Z" fill="white"/>
<path d="M470.865 40.8413C472.325 40.8413 472.909 40.1975 472.909 39.027C472.909 37.7395 472.325 37.2128 470.865 37.2128H468.354V40.7827H470.865V40.8413ZM466.368 35.5156H471.04C473.434 35.5156 474.836 36.569 474.836 39.027C474.836 40.7242 474.076 41.7776 472.733 42.2458L475.303 46.4595H473.084L470.748 42.5384H468.354V46.4595H466.368V35.5156Z" fill="white"/>
<path d="M479.098 35.5156H477.113V46.4595H479.098V35.5156Z" fill="white"/>
<path d="M487.683 41.9532L485.989 37.3299L484.354 41.9532H487.683ZM484.763 35.5156H487.274L491.42 46.4595H489.318L488.325 43.7089H483.712L482.719 46.4595H480.675L484.763 35.5156Z" fill="white"/>
<path d="M493.055 35.5156H495.04V44.6453H500.705V46.4595H493.055V35.5156Z" fill="white"/>
<path d="M408.265 63.314C409.666 63.314 410.308 62.7873 410.308 61.7924C410.308 60.739 409.725 60.2708 408.265 60.2708H405.637V63.314H408.265ZM408.206 58.6321C409.549 58.6321 410.017 58.0469 410.017 57.169C410.017 56.1741 409.608 55.706 408.206 55.706H405.578V58.6321H408.206ZM403.71 54.0088H408.498C410.776 54.0088 411.944 55.0622 411.944 56.935C411.944 58.0469 411.476 58.9833 410.367 59.3929C411.593 59.6855 412.236 60.6219 412.236 61.9094C412.236 63.8992 410.892 64.9526 408.498 64.9526H403.71V54.0088Z" fill="white"/>
<path d="M416.265 54.0088H414.279V64.9526H416.265V54.0088Z" fill="white"/>
<path d="M418.834 54.0088H426.601V55.7645H420.762V58.6321H426.367V60.3293H420.762V63.2555H426.543V64.9526H418.834V54.0088Z" fill="white"/>
<path d="M428.878 54.0088H431.097L436.586 62.2606V54.0088H438.455V64.9526H436.236L430.805 56.935V64.9526H428.878V54.0088Z" fill="white"/>
<path d="M441.025 54.0088H443.244L448.733 62.2606V54.0088H450.66V64.9526H448.382L442.952 56.935V64.9526H441.025V54.0088Z" fill="white"/>
<path d="M455.215 54.0088H453.229V64.9526H455.215V54.0088Z" fill="white"/>
<path d="M463.799 60.4464L462.105 55.823L460.47 60.4464H463.799ZM460.879 54.0088H463.39L467.536 64.9526H465.434L464.441 62.2021H459.828L458.835 64.9526H456.791L460.879 54.0088Z" fill="white"/>
<path d="M469.23 54.0088H471.157V63.1384H476.821V64.9526H469.23V54.0088Z" fill="white"/>
<path d="M486.806 63.3724C488.967 63.3724 490.193 61.8508 490.193 59.5098C490.193 57.1689 488.967 55.6473 486.806 55.6473C484.646 55.6473 483.42 57.1689 483.42 59.5098C483.42 61.8508 484.646 63.3724 486.806 63.3724ZM481.434 59.5098C481.434 55.8229 483.595 53.8916 486.806 53.8916C489.96 53.8916 492.179 55.8229 492.179 59.5098C492.179 63.1968 490.018 65.1281 486.806 65.1281C483.595 65.1281 481.434 63.1968 481.434 59.5098Z" fill="white"/>
<path d="M494.281 54.0088H502.048V55.7645H496.208V58.8662H501.814V60.5634H496.208V64.9526H494.281V54.0088Z" fill="white"/>
<path d="M384.965 78.0625C384.965 74.317 387.126 72.3857 390.221 72.3857C393.024 72.3857 394.6 73.7318 395.009 76.0142L393.082 76.3068C392.732 75.0193 391.914 74.1414 390.221 74.1414C388.177 74.1414 386.951 75.6045 386.951 78.0625C386.951 80.5205 388.119 81.925 390.162 81.925C391.914 81.925 392.79 81.0472 393.082 79.7012L395.009 80.0523C394.542 82.3932 392.965 83.6807 390.162 83.6807C387.009 83.6222 384.965 81.6324 384.965 78.0625Z" fill="white"/>
<path d="M401.958 81.925C404.119 81.925 405.345 80.4034 405.345 78.0625C405.345 75.7216 404.119 74.2 401.958 74.2C399.798 74.2 398.571 75.7216 398.571 78.0625C398.571 80.4034 399.798 81.925 401.958 81.925ZM396.586 78.004C396.586 74.317 398.746 72.3857 401.958 72.3857C405.112 72.3857 407.331 74.317 407.331 78.004C407.331 81.6909 405.17 83.6222 401.958 83.6222C398.746 83.6222 396.586 81.6909 396.586 78.004Z" fill="white"/>
<path d="M409.433 72.5605H411.593L417.083 80.7538V72.5605H419.01V83.5044H416.732L411.301 75.4282V83.5044H409.433V72.5605Z" fill="white"/>
<path d="M424.499 74.3748H420.586V72.5605H430.28V74.3748H426.426V83.5044H424.499V74.3748Z" fill="white"/>
<path d="M431.915 72.5605H439.682V74.2577H433.842V77.1254H439.448V78.8226H433.842V81.7487H439.623V83.5044H431.915V72.5605Z" fill="white"/>
<path d="M441.959 72.5605H444.703L447.915 80.1686L451.127 72.5605H453.871V83.5044H451.944V74.9015L448.733 82.334H447.039L443.769 74.843V83.5044H441.959V72.5605Z" fill="white"/>
<path d="M460.937 77.8862C462.339 77.8862 462.981 77.3009 462.981 76.0719C462.981 74.9015 462.397 74.2577 460.937 74.2577H458.426V77.8862H460.937ZM456.441 72.5605H461.113C463.624 72.5605 464.908 73.614 464.908 76.0719C464.908 78.5299 463.565 79.6419 461.113 79.6419H458.426V83.5629H456.441V72.5605Z" fill="white"/>
<path d="M471.741 81.925C473.901 81.925 475.128 80.4034 475.128 78.0625C475.128 75.7216 473.901 74.2 471.741 74.2C469.58 74.2 468.354 75.7216 468.354 78.0625C468.354 80.4034 469.58 81.925 471.741 81.925ZM466.368 78.004C466.368 74.317 468.529 72.3857 471.741 72.3857C474.894 72.3857 477.113 74.317 477.113 78.004C477.113 81.6909 474.952 83.6222 471.741 83.6222C468.529 83.6222 466.368 81.6909 466.368 78.004Z" fill="white"/>
<path d="M483.653 77.8277C485.113 77.8277 485.697 77.1839 485.697 76.0134C485.697 74.7259 485.113 74.1992 483.653 74.1992H481.142V77.7691H483.653V77.8277ZM479.215 72.5605H483.887C486.281 72.5605 487.683 73.614 487.683 76.0719C487.683 77.7691 486.923 78.8225 485.58 79.2907L488.15 83.5044H485.931L483.595 79.5834H481.201V83.5044H479.215V72.5605Z" fill="white"/>
<path d="M495.799 78.9396L494.106 74.3162L492.471 78.9396H495.799ZM492.88 72.5605H495.391L499.537 83.5044H497.435L496.442 80.7538H491.829L490.836 83.5044H488.792L492.88 72.5605Z" fill="white"/>
<path d="M505.668 77.8277C507.128 77.8277 507.712 77.1839 507.712 76.0134C507.712 74.7259 507.128 74.1992 505.668 74.1992H503.157V77.7691H505.668V77.8277ZM501.172 72.5605H505.844C508.238 72.5605 509.639 73.614 509.639 76.0719C509.639 77.7691 508.88 78.8225 507.537 79.2907L510.106 83.5044H507.887L505.552 79.5834H503.157V83.5044H501.172V72.5605Z" fill="white"/>
<path d="M514.661 79.3493L510.34 72.5605H512.617L515.654 77.4765L518.69 72.5605H520.968L516.647 79.3493V83.5044H514.661V79.3493Z" fill="white"/>
<path d="M445.521 97.4337L443.828 92.8104L442.192 97.4337H445.521ZM442.601 91.0547H445.112L449.258 101.999H447.156L446.163 99.248H441.55L440.557 101.999H438.514L442.601 91.0547Z" fill="white"/>
<path d="M455.331 96.3803C456.791 96.3803 457.375 95.7366 457.375 94.5661C457.375 93.2786 456.791 92.7518 455.331 92.7518H452.82V96.3218H455.331V96.3803ZM450.893 91.0547H455.565C457.959 91.0547 459.361 92.1081 459.361 94.5661C459.361 96.2633 458.602 97.3167 457.258 97.7849L459.828 101.999H457.55L455.215 98.0775H452.82V101.999H450.835V91.0547H450.893Z" fill="white"/>
<path d="M464.383 92.8689H460.529V91.0547H470.222V92.8689H466.368V101.999H464.383V92.8689Z" fill="white"/>
</g>
<defs>
<clipPath id="clip0_18_96073">
<rect width="550" height="118" fill="white" transform="translate(0 0.5)"/>
</clipPath>
</defs>
</svg>
