<svg width="102" height="48" viewBox="0 0 102 48" fill="none" xmlns="http://www.w3.org/2000/svg">
<path d="M6.10352e-05 0.890625H1.1847L2.98635 5.7223L4.76331 0.890625H5.8986L3.60335 6.95487H2.34467L6.10352e-05 0.890625Z" fill="#FF553B"/>
<path d="M7.80034 0.890625H6.71442V6.95487H7.80034V0.890625Z" fill="#FF553B"/>
<path d="M101.495 47.6023H74.5419C69.1259 47.6023 64.0359 45.5579 60.1958 41.7403C56.3557 45.5579 51.157 47.6023 45.741 47.6023H12.8826V0.398438H42.7885C48.2226 0.398438 53.3488 2.461 57.1889 6.29666C61.029 2.461 66.1552 0.398438 71.5893 0.398438H101.495V47.6023Z" fill="#FF553B"/>
<path d="M42.7894 0.796079C48.1329 0.796079 53.1323 2.82246 56.9181 6.58575L57.4796 6.02488C53.549 2.09875 48.3322 0.0180938 42.8075 0.0180938V0.796079H42.7894ZM12.8835 0.796079H42.7894V0H12.8835V0.796079ZM13.2821 47.602V0.398042H12.5032V47.602H13.2821ZM45.7419 47.2039H12.8835V47.9819H45.7419V47.2039ZM59.9612 41.4143C56.1936 45.1775 51.0855 47.2039 45.7419 47.2039V47.9819C51.2847 47.9819 56.5921 45.8832 60.5228 41.9751L59.9612 41.4143ZM77.5859 23.7196L59.9612 41.4143L60.5228 41.9751L78.1474 24.2804L77.5859 23.7196ZM12.8835 0.398042V0H12.485V0.398042H12.8835ZM12.8835 47.602H12.485V48H12.8835V47.602Z" fill="white"/>
<path d="M56.9191 6.02488L39.2038 23.7196L39.7653 24.2804L57.4806 6.58575L56.9191 6.02488ZM71.5912 0C66.0484 0 60.8316 2.09876 56.9191 6.00679L57.4806 6.56766C61.2482 2.80437 66.2658 0.777985 71.6093 0.777985V0H71.5912ZM101.225 0H71.5912V0.777985H101.225V0ZM101.606 47.602V0.398042H100.827V47.602H101.606ZM74.5438 47.9819H101.225V47.2039H74.5438V47.9819ZM59.8716 41.9751C63.8023 45.9012 69.0191 47.9819 74.5438 47.9819V47.2039C69.2002 47.2039 64.2008 45.1775 60.415 41.4143L59.8716 41.9751ZM101.225 0.398042H101.624V0H101.225V0.398042ZM101.225 47.602V48H101.624V47.602H101.225Z" fill="white"/>
</svg>
