<svg width="61" height="26" viewBox="0 0 61 26" fill="none" xmlns="http://www.w3.org/2000/svg">
<g clip-path="url(#clip0_41_16579)">
<path d="M51 0.451172H52.1084L53.7942 4.87248L55.4568 0.451172H56.5191L54.3715 6.00037H53.1938L51 0.451172Z" fill="#FF553B"/>
<path d="M58.2961 0.451172H57.28V6.00037H58.2961V0.451172Z" fill="#FF553B"/>
<path d="M34.3455 25.9341H49.0819V-0.118164H32.6948C29.7018 -0.118164 26.8878 1.01541 24.7797 3.1334L14.846 13.0671L14.5378 12.7588L24.3124 2.98424C22.2143 0.965688 19.4698 -0.10822 16.5563 -0.10822H0.000226974V25.944H18.197C21.1901 25.944 24.0538 24.8105 26.1718 22.6925L36.0458 12.7588L36.3541 13.0671L26.6093 22.8715C28.7074 24.8701 31.4419 25.9341 34.3455 25.9341Z" fill="#FF553B"/>
</g>
<defs>
<clipPath id="clip0_41_16579">
<rect width="61" height="26" fill="white"/>
</clipPath>
</defs>
</svg>
