<svg width="172" height="42" viewBox="0 0 172 42" fill="none" xmlns="http://www.w3.org/2000/svg">
<path d="M97.6654 4.98554H98.1285C98.5284 4.98554 98.76 4.88029 98.9284 4.6277L96.9287 0.649414H97.9812L99.4125 3.65944L100.739 0.649414H101.707L99.8966 4.6698C99.5178 5.49072 99.1599 5.84856 98.2548 5.84856H97.6865V4.98554H97.6654Z" fill="white"/>
<path d="M104.485 3.17531C105.159 3.17531 105.453 2.88062 105.453 2.3123C105.453 1.74397 105.159 1.44928 104.485 1.44928H103.264V3.15426H104.485V3.17531ZM102.338 0.649414H104.548C105.727 0.649414 106.358 1.15459 106.358 2.3123C106.358 3.47 105.727 3.99623 104.548 3.99623H103.264V5.84856H102.338V0.649414Z" fill="white"/>
<path d="M109.705 3.68049L108.905 1.47033L108.126 3.68049H109.705ZM108.316 0.649414H109.516L111.473 5.82751H110.484L110 4.52246H107.811L107.348 5.82751H106.379L108.316 0.649414Z" fill="white"/>
<path d="M111.726 4.96395H111.978C112.42 4.96395 112.715 4.79555 112.736 4.07988C112.757 3.28001 112.778 1.82762 112.778 0.669922H116.525V5.84801H115.599V1.53294H113.704C113.704 2.35385 113.683 3.4905 113.662 4.18513C113.62 5.38493 113.157 5.84801 112.126 5.84801H111.726V4.96395Z" fill="white"/>
<path d="M119.893 5.00659C120.588 5.00659 120.861 4.73295 120.861 4.16462C120.861 3.5963 120.588 3.3437 119.893 3.3437H118.672V5.02763H119.893V5.00659ZM117.746 0.649414H118.672V2.50174H119.977C121.156 2.50174 121.787 3.00692 121.787 4.16462C121.787 5.25918 121.156 5.82751 119.956 5.82751H117.767V0.649414H117.746Z" fill="white"/>
<path d="M122.503 3.25918C122.503 1.49105 123.513 0.585938 124.987 0.585938C126.313 0.585938 127.07 1.21741 127.26 2.31196L126.355 2.45931C126.186 1.84888 125.808 1.4279 124.987 1.4279C124.018 1.4279 123.45 2.12252 123.45 3.28023C123.45 4.43793 124.018 5.1115 124.966 5.1115C125.808 5.1115 126.207 4.69052 126.355 4.05905L127.26 4.20639C127.028 5.32199 126.292 5.93242 124.966 5.93242C123.471 5.91137 122.503 4.96416 122.503 3.25918Z" fill="white"/>
<path d="M128.25 0.649414H129.176V2.79643H130.018L131.428 0.649414H132.523L130.776 3.15426L132.586 5.84856H131.449L129.997 3.6384H129.176V5.84856H128.25V0.649414Z" fill="white"/>
<path d="M136.079 3.68049L135.279 1.47033L134.501 3.68049H136.079ZM134.69 0.649414H135.89L137.847 5.82751H136.858L136.374 4.52246H134.185L133.722 5.82751H132.753L134.69 0.649414Z" fill="white"/>
<path d="M140.31 3.15426H141.594V1.47033H140.31C139.637 1.47033 139.363 1.72292 139.363 2.3123C139.363 2.90167 139.637 3.15426 140.31 3.15426ZM141.594 3.97518H140.458L139.3 5.82751H138.248L139.532 3.86993C138.837 3.68049 138.458 3.15426 138.458 2.29124C138.458 1.19669 139.153 0.649414 140.289 0.649414H142.563V5.82751H141.637V3.97518H141.594Z" fill="white"/>
<path d="M97.4546 9.42676H98.3807V13.3208L100.949 9.42676H101.959V14.6048H101.033V10.6897L98.4228 14.6048H97.4546V9.42676Z" fill="white"/>
<path d="M103.179 9.42676H104.106V11.5738H106.632V9.42676H107.558V14.6048H106.632V12.4368H104.106V14.6048H103.179V9.42676Z" fill="white"/>
<path d="M112.104 13.7418V10.2898H110.273C110.273 10.8581 110.252 11.5948 110.231 12.1842C110.21 12.7946 110.062 13.3208 109.789 13.7418H112.104ZM108.231 13.7418H108.757C109.094 13.4471 109.326 12.8367 109.347 12.1421C109.368 11.3422 109.389 10.4792 109.389 9.42676H113.051V13.7418H113.767V15.6994H112.862V14.6048H109.157V15.6994H108.252V13.7418H108.231Z" fill="white"/>
<path d="M114.567 13.7629H115.03C115.43 13.7629 115.662 13.6576 115.83 13.405L113.831 9.42676H114.883L116.314 12.4368L117.64 9.42676H118.609L116.798 13.4471C116.42 14.2681 116.062 14.6259 115.157 14.6259H114.588V13.7629H114.567Z" fill="white"/>
<path d="M118.798 12.016C118.798 10.2479 119.808 9.34277 121.282 9.34277C122.608 9.34277 123.365 9.97425 123.555 11.0688L122.65 11.2162C122.481 10.6057 122.102 10.1847 121.282 10.1847C120.313 10.1847 119.745 10.8794 119.745 12.0371C119.745 13.1948 120.313 13.8683 121.26 13.8683C122.102 13.8683 122.502 13.4474 122.65 12.8159L123.555 12.9632C123.323 14.0788 122.587 14.6893 121.26 14.6893C119.766 14.6893 118.798 13.742 118.798 12.016Z" fill="white"/>
<path d="M125.913 10.2898H124.082V9.42676H128.67V10.2898H126.839V14.6048H125.913V10.2898Z" fill="white"/>
<path d="M131.575 11.9527C132.249 11.9527 132.544 11.658 132.544 11.0896C132.544 10.5213 132.249 10.2266 131.575 10.2266H130.376V11.9316H131.575V11.9527ZM129.449 9.42676H131.66C132.838 9.42676 133.47 9.93194 133.47 11.0896C133.47 12.2473 132.838 12.7736 131.66 12.7736H130.376V14.6259H129.449V9.42676Z" fill="white"/>
<path d="M134.374 9.42676H135.279V13.3208L137.868 9.42676H138.878V14.6048H137.952V10.6897L135.342 14.6048H134.374V9.42676Z" fill="white"/>
<path d="M142.984 12.4578L142.184 10.2477L141.405 12.4578H142.984ZM141.594 9.42676H142.794L144.752 14.6048H143.762L143.278 13.2998H141.089L140.626 14.6048H139.658L141.594 9.42676Z" fill="white"/>
<path d="M145.005 13.7208H145.257C145.699 13.7208 145.994 13.5524 146.015 12.8367C146.036 12.0368 146.057 10.5845 146.057 9.42676H149.804V14.6048H148.878V10.2898H146.983C146.983 11.1107 146.962 12.2473 146.941 12.942C146.899 14.1418 146.436 14.6048 145.405 14.6048H145.005V13.7208Z" fill="white"/>
<path d="M153.171 13.7839C153.866 13.7839 154.14 13.5103 154.14 12.942C154.14 12.3736 153.866 12.121 153.171 12.121H151.951V13.805H153.171V13.7839ZM151.024 9.42676H151.951V11.2791H153.256C154.434 11.2791 155.066 11.7843 155.066 12.942C155.066 14.0365 154.434 14.6048 153.235 14.6048H151.045V9.42676H151.024Z" fill="white"/>
<path d="M156.013 9.42676H156.939V11.5738H159.465V9.42676H160.391V14.6048H159.465V12.4368H156.939V14.6048H156.013V9.42676Z" fill="white"/>
<path d="M164.495 12.4578L163.695 10.2477L162.917 12.4578H164.495ZM163.127 9.42676H164.327L166.284 14.6048H165.295L164.811 13.2998H162.622L162.159 14.6048H161.191L163.127 9.42676Z" fill="white"/>
<path d="M168.748 11.9316H170.032V10.2477H168.748C168.074 10.2477 167.801 10.5003 167.801 11.0896C167.78 11.679 168.053 11.9316 168.748 11.9316ZM170.011 12.7525H168.874L167.717 14.6048H166.664L167.948 12.6473C167.253 12.4578 166.875 11.9316 166.875 11.0686C166.875 9.97403 167.569 9.42676 168.706 9.42676H170.979V14.6048H170.053V12.7525H170.011Z" fill="white"/>
<path d="M99.6226 22.5613C100.275 22.5613 100.549 22.3297 100.549 21.8246C100.549 21.2983 100.275 21.0668 99.6226 21.0668H98.3807V22.5613H99.6226ZM97.4546 18.2041H101.159V19.0461H98.3807V20.2669H99.6858C100.886 20.2669 101.496 20.6879 101.496 21.8246C101.496 22.9612 100.886 23.3822 99.7068 23.3822H97.4546V18.2041Z" fill="white"/>
<path d="M102.443 18.2041H103.369V22.0982L105.937 18.2041H106.948V23.3822H106.043V19.446L103.433 23.3822H102.443V18.2041Z" fill="white"/>
<path d="M108.168 18.2041H111.873V19.025H109.115V20.3722H111.767V21.172H109.115V22.5613H111.852V23.3822H108.168V18.2041Z" fill="white"/>
<path d="M112.967 18.2041H113.893V20.3301H116.419V18.2041H117.345V23.3822H116.419V21.1931H113.893V23.3822H112.967V18.2041Z" fill="white"/>
<path d="M118.566 18.2041H119.492V20.3301H122.018V18.2041H122.944V23.3822H122.018V21.1931H119.492V23.3822H118.566V18.2041Z" fill="white"/>
<path d="M127.071 21.2352L126.271 19.025L125.492 21.2352H127.071ZM125.681 18.2041H126.881L128.839 23.3822H127.849L127.365 22.0771H125.176L124.713 23.3822H123.745L125.681 18.2041Z" fill="white"/>
<path d="M129.091 22.4981H129.344C129.786 22.4981 130.08 22.3297 130.101 21.6141C130.122 20.8142 130.144 19.3618 130.144 18.2041H133.89V23.3822H132.964V19.0671H131.07C131.07 19.888 131.049 21.0247 131.028 21.7193C130.985 22.9191 130.522 23.3822 129.491 23.3822H129.091V22.4981Z" fill="white"/>
<path d="M135.111 18.2041H138.815V19.025H136.037V20.3722H138.689V21.172H136.037V22.5613H138.773V23.3822H135.111V18.2041Z" fill="white"/>
<path d="M97.2228 29.5707C97.2228 27.8026 98.2331 26.8975 99.7066 26.8975C101.033 26.8975 101.79 27.5289 101.98 28.6235L101.075 28.7708C100.906 28.1604 100.527 27.7394 99.7066 27.7394C98.7383 27.7394 98.17 28.434 98.17 29.5917C98.17 30.7495 98.7383 31.423 99.6855 31.423C100.527 31.423 100.927 31.002 101.075 30.3706L101.98 30.5179C101.748 31.6335 101.012 32.2439 99.6855 32.2439C98.191 32.2229 97.2228 31.2757 97.2228 29.5707Z" fill="white"/>
<path d="M105.285 31.4015C106.316 31.4015 106.885 30.6859 106.885 29.5703C106.885 28.4336 106.316 27.739 105.285 27.739C104.253 27.739 103.685 28.4547 103.685 29.5703C103.685 30.6859 104.274 31.4015 105.285 31.4015ZM102.738 29.5492C102.738 27.8021 103.769 26.876 105.285 26.876C106.8 26.876 107.832 27.7811 107.832 29.5492C107.832 31.3173 106.8 32.2225 105.285 32.2225C103.769 32.2225 102.738 31.3173 102.738 29.5492Z" fill="white"/>
<path d="M111.01 31.3602C111.684 31.3602 111.979 31.1287 111.979 30.6445C111.979 30.1394 111.705 29.9078 111.01 29.9078H109.747V31.3392H111.01V31.3602ZM110.989 29.1501C111.621 29.1501 111.852 28.8764 111.852 28.4554C111.852 27.9923 111.642 27.7608 110.989 27.7608H109.747V29.1501H110.989ZM108.842 26.9609H111.116C112.189 26.9609 112.757 27.4451 112.757 28.3502C112.757 28.8764 112.547 29.3184 112 29.5079C112.589 29.6552 112.884 30.0973 112.884 30.7077C112.884 31.6549 112.252 32.1601 111.116 32.1601H108.821V26.9609H108.842Z" fill="white"/>
<path d="M116.02 29.4868C116.693 29.4868 116.988 29.1921 116.988 28.6238C116.988 28.0555 116.693 27.7608 116.02 27.7608H114.82V29.4658H116.02V29.4868ZM113.873 26.9609H116.104C117.283 26.9609 117.914 27.4661 117.914 28.6238C117.914 29.7815 117.283 30.3078 116.104 30.3078H114.82V32.1601H113.894V26.9609H113.873Z" fill="white"/>
<path d="M118.798 26.9609H122.502V27.7819H119.724V29.129H122.397V29.9289H119.724V31.3181H122.481V32.1601H118.798V26.9609Z" fill="white"/>
<path d="M123.576 26.9609H124.902L126.418 30.5603L127.933 26.9609H129.238V32.1601H128.333V28.0765L126.818 31.6128H125.976L124.46 28.0555V32.1601H123.576V26.9609Z" fill="white"/>
<path d="M130.459 26.9609H134.164V27.7819H131.385V29.129H134.058V29.9289H131.385V31.3181H134.143V32.1601H130.459V26.9609Z" fill="white"/>
<path d="M135.237 26.9609H136.185V29.108H138.689V26.9609H139.637V32.1601H138.689V29.971H136.185V32.1601H135.237V26.9609Z" fill="white"/>
<path d="M140.858 26.9609H141.784V29.108H144.31V26.9609H145.236V32.1601H144.31V29.971H141.784V32.1601H140.858V26.9609Z" fill="white"/>
<path d="M148.772 31.4015C149.804 31.4015 150.372 30.6859 150.372 29.5703C150.372 28.4336 149.804 27.739 148.772 27.739C147.741 27.739 147.173 28.4547 147.173 29.5703C147.173 30.6859 147.762 31.4015 148.772 31.4015ZM146.225 29.5492C146.225 27.8021 147.257 26.876 148.772 26.876C150.288 26.876 151.319 27.7811 151.319 29.5492C151.319 31.3173 150.288 32.2225 148.772 32.2225C147.257 32.2225 146.225 31.3173 146.225 29.5492Z" fill="white"/>
<path d="M152.33 26.9609H155.782V27.824H153.256V32.1601H152.33V26.9609Z" fill="white"/>
<path d="M158.687 31.4015C159.718 31.4015 160.286 30.6859 160.286 29.5703C160.286 28.4336 159.718 27.739 158.687 27.739C157.655 27.739 157.087 28.4547 157.087 29.5703C157.087 30.6859 157.655 31.4015 158.687 31.4015ZM156.14 29.5492C156.14 27.8021 157.171 26.876 158.687 26.876C160.202 26.876 161.234 27.7811 161.234 29.5492C161.234 31.3173 160.202 32.2225 158.687 32.2225C157.171 32.2225 156.14 31.3173 156.14 29.5492Z" fill="white"/>
<path d="M97.4546 35.7383H98.3807V39.6324L100.949 35.7383H101.959V40.9164H101.033V37.0012L98.4228 40.9164H97.4546V35.7383Z" fill="white"/>
<path d="M102.949 38.3275C102.949 36.5594 103.959 35.6543 105.433 35.6543C106.759 35.6543 107.517 36.2858 107.706 37.3803L106.801 37.5277C106.633 36.9173 106.254 36.4963 105.433 36.4963C104.465 36.4963 103.896 37.1909 103.896 38.3486C103.896 39.5063 104.465 40.1799 105.412 40.1799C106.254 40.1799 106.654 39.7589 106.801 39.1274L107.706 39.2748C107.475 40.3904 106.738 41.0008 105.412 41.0008C103.917 41.0008 102.949 40.0536 102.949 38.3275Z" fill="white"/>
<path d="M108.695 35.7383H109.621V37.8642H110.463L111.873 35.7383H112.968L111.22 38.2431L113.031 40.9164H111.894L110.442 38.7062H109.621V40.9164H108.695V35.7383Z" fill="white"/>
<path d="M113.957 40.0744H114.42C114.82 40.0744 115.051 39.9692 115.22 39.7166L113.22 35.7383H114.273L115.704 38.7483L117.03 35.7383H117.998L116.188 39.7587C115.809 40.5796 115.451 40.9374 114.546 40.9374H113.978V40.0744H113.957Z" fill="white"/>
<path d="M118.209 38.3275C118.209 36.5594 119.22 35.6543 120.693 35.6543C122.019 35.6543 122.777 36.2858 122.967 37.3803L122.061 37.5277C121.893 36.9173 121.514 36.4963 120.693 36.4963C119.725 36.4963 119.157 37.1909 119.157 38.3486C119.157 39.5063 119.725 40.1799 120.672 40.1799C121.514 40.1799 121.914 39.7589 122.061 39.1274L122.967 39.2748C122.735 40.3904 121.998 41.0008 120.672 41.0008C119.178 41.0008 118.209 40.0536 118.209 38.3275Z" fill="white"/>
<path d="M123.724 38.3275C123.724 36.5594 124.734 35.6543 126.208 35.6543C127.534 35.6543 128.292 36.2858 128.481 37.3803L127.576 37.5277C127.408 36.9173 127.029 36.4963 126.208 36.4963C125.24 36.4963 124.671 37.1909 124.671 38.3486C124.671 39.5063 125.24 40.1799 126.187 40.1799C127.029 40.1799 127.429 39.7589 127.576 39.1274L128.481 39.2748C128.25 40.3904 127.513 41.0008 126.187 41.0008C124.692 41.0008 123.724 40.0536 123.724 38.3275Z" fill="white"/>
<path d="M130.839 36.6013H129.007V35.7383H133.596V36.6013H131.765V40.9164H130.839V36.6013Z" fill="white"/>
<path d="M136.542 40.1375C137.215 40.1375 137.51 39.906 137.51 39.4219C137.51 38.9167 137.236 38.6852 136.542 38.6852H135.279V40.1165H136.542V40.1375ZM136.5 37.9063C137.131 37.9063 137.363 37.6327 137.363 37.2117C137.363 36.7486 137.152 36.5171 136.5 36.5171H135.258V37.9063H136.5ZM134.353 35.7383H136.626C137.7 35.7383 138.268 36.2224 138.268 37.1275C138.268 37.6537 138.057 38.0958 137.51 38.2852C138.099 38.4326 138.394 38.8746 138.394 39.485C138.394 40.4322 137.763 40.9374 136.626 40.9374H134.332V35.7383H134.353Z" fill="white"/>
<path d="M142.205 38.7694L141.405 36.5592L140.626 38.7694H142.205ZM140.815 35.7383H142.015L143.973 40.9164H142.983L142.499 39.6113H140.31L139.847 40.9164H138.879L140.815 35.7383Z" fill="white"/>
<path d="M0 0.728516H1.06348L2.68086 5.07106L4.27608 0.728516H5.29525L3.23475 6.17886H2.10481L0 0.728516Z" fill="white"/>
<path d="M7 0.728516H6.02515V6.17886H7V0.728516Z" fill="white"/>
<path d="M66.4559 41.4596H89.7098V0.349609H63.8512C59.1283 0.349609 54.6878 2.13836 51.3613 5.48051L35.6862 21.1557L35.1998 20.6692L50.6239 5.24515C47.3131 2.05991 42.9824 0.365301 38.385 0.365301H12.2598V41.4753H40.974C45.6969 41.4753 50.2159 39.6865 53.5581 36.3444L69.1391 20.6692L69.6255 21.1557L54.2485 36.6268C57.5592 39.7807 61.8742 41.4596 66.4559 41.4596Z" fill="white"/>
</svg>
