<svg width="1570" height="327" viewBox="0 0 1570 327" fill="none" xmlns="http://www.w3.org/2000/svg">
<g clip-path="url(#clip0_18_96319)">
<path d="M1008.78 2.8916C970.815 2.8916 935.139 16.9047 908.381 42.9291C881.624 16.9047 845.947 2.8916 807.983 2.8916H741.204C703.241 2.8916 667.564 16.9047 640.807 42.9291C614.049 16.9047 578.372 2.8916 540.409 2.8916H2.9726V323.192H561.22C598.955 323.192 635.089 309.401 661.847 283.377C688.604 309.179 724.052 323.192 761.787 323.192H828.566C866.301 323.192 902.435 309.401 929.193 283.377C955.95 309.179 991.398 323.192 1029.13 323.192H1566.8V2.8916H1008.78Z" fill="white"/>
<path d="M561.221 326.083H0V0.222656H540.638C579.516 0.222656 615.879 14.6806 643.094 41.1499L638.977 45.1536C612.906 19.7965 578.144 6.00587 540.638 6.00587H5.71741V320.745H561.221C598.956 320.745 634.175 306.732 660.246 281.597L783.056 161.485L787.173 165.489L664.363 285.601C637.148 311.626 600.556 326.083 561.221 326.083Z" fill="#FF4231" fill-opacity="0.9"/>
<path d="M519.369 165.044L515.252 161.04L638.748 40.9272C665.734 14.6804 702.097 0 741.204 0H807.984C846.862 0 883.225 14.458 910.439 40.9272L906.323 44.931C880.252 19.5739 845.49 5.78321 807.984 5.78321H741.204C703.698 5.78321 668.936 19.7964 642.865 44.931L519.369 165.044Z" fill="#FF4231" fill-opacity="0.9"/>
<path d="M828.795 326.084H762.016C723.137 326.084 686.775 311.626 659.56 285.156L663.676 281.153C689.748 306.51 724.51 320.3 762.016 320.3H828.795C866.759 320.3 901.749 306.287 927.821 281.153L1050.63 161.04L1054.75 165.044L931.937 285.156C904.722 311.403 868.131 326.084 828.795 326.084Z" fill="#FF4231" fill-opacity="0.9"/>
<path d="M1570 326.083H1029.36C990.483 326.083 954.12 311.625 926.906 285.156L931.022 281.152C957.093 306.509 991.855 320.3 1029.36 320.3H1564.28V5.78321H1008.78C971.273 5.78321 936.511 19.7964 910.439 44.931L786.943 165.044L782.827 161.04L906.323 40.9272C933.309 14.6804 969.672 0 1008.78 0H1570V326.083Z" fill="#FF4231" fill-opacity="0.9"/>
<path d="M48.073 71.063H50.9068C53.4071 71.063 54.7407 70.4146 55.7408 68.9554L43.739 45.7715H50.0733L58.7413 63.281L66.7425 45.7715H72.5768L61.7418 69.2796C59.5748 74.1434 57.2411 76.0889 51.9069 76.0889H48.5731V71.063H48.073Z" fill="#FF4231" fill-opacity="0.9"/>
<path d="M89.0793 60.5249C93.0799 60.5249 94.9135 58.9036 94.9135 55.499C94.9135 52.2565 93.2466 50.4731 89.0793 50.4731H81.9115V60.5249H89.0793ZM76.244 45.7715H89.5794C96.7471 45.7715 100.414 48.6897 100.414 55.499C100.414 62.3083 96.5804 65.3887 89.5794 65.3887H81.9115V76.2511H76.244V45.7715Z" fill="#FF4231" fill-opacity="0.9"/>
<path d="M120.583 63.4431L115.749 50.6352L111.082 63.4431H120.583ZM112.249 45.7715H119.417L131.252 76.0889H125.251L122.417 68.469H109.248L106.415 76.0889H100.58L112.249 45.7715Z" fill="#FF4231" fill-opacity="0.9"/>
<path d="M132.752 70.9009H134.253C136.92 70.9009 138.753 69.9282 138.92 65.7129C139.087 61.0113 139.087 52.5807 139.087 45.7715H161.59V76.0889H155.923V50.7974H144.588C144.588 55.6611 144.421 62.1462 144.421 66.3614C144.254 73.3328 141.42 76.0889 135.253 76.0889H132.919V70.9009H132.752Z" fill="#FF4231" fill-opacity="0.9"/>
<path d="M181.759 71.2252C185.927 71.2252 187.594 69.6039 187.594 66.1993C187.594 62.7946 185.927 61.3355 181.759 61.3355H174.425V71.063H181.759V71.2252ZM168.924 45.7715H174.592V56.6339H182.426C189.427 56.6339 193.261 59.5522 193.261 66.3614C193.261 72.6843 189.427 76.0889 182.26 76.0889H169.091V45.7715H168.924Z" fill="#FF4231" fill-opacity="0.9"/>
<path d="M197.429 61.0113C197.429 50.6353 203.596 45.2852 212.431 45.2852C220.432 45.2852 224.933 49.014 226.1 55.3369L220.599 56.1475C219.599 52.5808 217.265 50.1489 212.431 50.1489C206.597 50.1489 203.096 54.202 203.096 61.0113C203.096 67.8205 206.43 71.7116 212.264 71.7116C217.265 71.7116 219.765 69.2797 220.599 65.5508L226.1 66.3614C224.766 72.8465 220.266 76.4132 212.264 76.4132C203.263 76.5753 197.429 70.9009 197.429 61.0113Z" fill="#FF4231" fill-opacity="0.9"/>
<path d="M231.934 45.7715H237.602V58.2552H242.603L251.104 45.7715H257.605L247.27 60.3628L258.105 76.0889H251.104L242.436 63.1189H237.602V76.0889H231.934V45.7715Z" fill="#FF4231" fill-opacity="0.9"/>
<path d="M279.108 63.4431L274.274 50.6352L269.606 63.4431H279.108ZM270.773 45.7715H277.941L289.776 76.0889H283.775L280.942 68.469H267.773L264.939 76.0889H259.105L270.773 45.7715Z" fill="#FF4231" fill-opacity="0.9"/>
<path d="M304.445 60.3628H312.113V50.4731H304.445C300.445 50.4731 298.778 51.9322 298.778 55.3369C298.778 58.7415 300.445 60.3628 304.445 60.3628ZM312.113 65.2265H305.279L298.278 76.0889H291.944L299.611 64.578C295.444 63.4431 293.11 60.3627 293.11 55.3369C293.11 49.014 297.278 45.7715 304.112 45.7715H317.781V76.0889H312.113V65.2265Z" fill="#FF4231" fill-opacity="0.9"/>
<path d="M46.906 97.0029H52.4068V119.863L67.9092 97.0029H73.9101V127.32H68.4093V104.461L52.7402 127.32H46.906V97.0029Z" fill="#FF4231" fill-opacity="0.9"/>
<path d="M81.2447 97.0029H86.9123V109.649H102.081V97.0029H107.582V127.32H102.081V114.675H86.9123V127.32H81.2447V97.0029Z" fill="#FF4231" fill-opacity="0.9"/>
<path d="M134.919 122.294V102.191H123.918C123.918 105.596 123.751 109.811 123.584 113.215C123.418 116.782 122.584 119.863 120.917 122.294H134.919ZM111.749 122.294H114.916C116.917 120.673 118.25 117.106 118.417 112.891C118.583 108.19 118.583 103.164 118.583 97.0029H140.587V122.294H144.921V133.805H139.587V127.482H117.25V133.805H111.916V122.294H111.749Z" fill="#FF4231" fill-opacity="0.9"/>
<path d="M149.755 122.294H152.589C155.089 122.294 156.423 121.646 157.423 120.187L145.421 97.0029H151.756L160.424 114.512L168.425 97.0029H174.259L163.424 120.511C161.257 125.375 158.923 127.32 153.589 127.32H150.255V122.294H149.755Z" fill="#FF4231" fill-opacity="0.9"/>
<path d="M175.259 112.243C175.259 101.867 181.427 96.5166 190.261 96.5166C198.262 96.5166 202.763 100.245 203.93 106.568L198.429 107.379C197.429 103.812 195.095 101.38 190.261 101.38C184.427 101.38 180.926 105.433 180.926 112.243C180.926 119.052 184.26 122.943 190.095 122.943C195.095 122.943 197.596 120.511 198.429 116.782L203.93 117.593C202.596 124.078 198.096 127.645 190.095 127.645C181.093 127.807 175.259 122.294 175.259 112.243Z" fill="#FF4231" fill-opacity="0.9"/>
<path d="M217.932 102.191H206.93V97.0029H234.601V102.191H223.6V127.32H217.932V102.191Z" fill="#FF4231" fill-opacity="0.9"/>
<path d="M251.937 111.756C255.938 111.756 257.771 110.135 257.771 106.73C257.771 103.488 256.104 101.705 251.937 101.705H244.769V111.756H251.937ZM239.102 97.0029H252.437C259.605 97.0029 263.272 99.9212 263.272 106.73C263.272 113.54 259.438 116.62 252.437 116.62H244.769V127.482H239.102V97.0029Z" fill="#FF4231" fill-opacity="0.9"/>
<path d="M268.773 97.0029H274.274V119.863L289.777 97.0029H295.778V127.32H290.277V104.461L274.608 127.32H268.773V97.0029Z" fill="#FF4231" fill-opacity="0.9"/>
<path d="M320.614 114.837L315.78 102.029L310.946 114.837H320.614ZM312.279 97.0029H319.447L331.282 127.32H325.281L322.448 119.7H309.279L306.445 127.32H300.611L312.279 97.0029Z" fill="#FF4231" fill-opacity="0.9"/>
<path d="M332.783 122.132H334.283C336.95 122.132 338.784 121.16 338.951 116.944C339.117 112.243 339.117 103.812 339.117 97.0029H361.621V127.32H355.953V102.029H344.618C344.618 106.893 344.452 113.378 344.452 117.593C344.285 124.564 341.451 127.32 335.283 127.32H332.95V122.132H332.783Z" fill="#FF4231" fill-opacity="0.9"/>
<path d="M381.79 122.619C385.957 122.619 387.624 120.997 387.624 117.593C387.624 114.188 385.957 112.729 381.79 112.729H374.456V122.457H381.79V122.619ZM368.955 97.0029H374.622V107.865H382.457C389.458 107.865 393.292 110.784 393.292 117.593C393.292 123.916 389.458 127.32 382.29 127.32H369.122V97.0029H368.955Z" fill="#FF4231" fill-opacity="0.9"/>
<path d="M398.793 97.0029H404.461V109.649H419.63V97.0029H425.131V127.32H419.63V114.675H404.461V127.32H398.793V97.0029Z" fill="#FF4231" fill-opacity="0.9"/>
<path d="M449.967 114.837L445.133 102.029L440.466 114.837H449.967ZM441.633 97.0029H448.801L460.636 127.32H454.635L451.801 119.7H438.632L435.799 127.32H429.964L441.633 97.0029Z" fill="#FF4231" fill-opacity="0.9"/>
<path d="M475.305 111.594H482.973V101.867H475.305C471.304 101.867 469.637 103.326 469.637 106.73C469.637 110.135 471.304 111.594 475.305 111.594ZM482.973 116.458H476.138L469.137 127.32H462.803L470.471 115.809C466.304 114.675 463.97 111.594 463.97 106.568C463.97 100.245 468.137 97.0029 474.971 97.0029H488.64V127.32H482.973V116.458Z" fill="#FF4231" fill-opacity="0.9"/>
<path d="M59.908 173.851C63.9086 173.851 65.4088 172.554 65.4088 169.474C65.4088 166.393 63.7419 165.096 59.908 165.096H52.4068V173.851H59.908ZM46.906 148.397H69.2427V153.261H52.5735V160.395H60.4081C67.5758 160.395 71.243 162.827 71.243 169.474C71.243 176.121 67.5758 178.553 60.4081 178.553H46.906V148.397Z" fill="#FF4231" fill-opacity="0.9"/>
<path d="M76.9106 148.397H82.4114V171.095L97.9138 148.397H104.081V178.715H98.4139V155.693L82.7448 178.715H76.9106V148.397Z" fill="#FF4231" fill-opacity="0.9"/>
<path d="M111.415 148.397H133.585V153.099H116.916V161.043H132.919V165.745H116.916V173.851H133.419V178.715H111.415V148.397Z" fill="#FF4231" fill-opacity="0.9"/>
<path d="M140.087 148.397H145.754V160.881H160.923V148.397H166.424V178.715H160.923V165.907H145.754V178.715H140.087V148.397Z" fill="#FF4231" fill-opacity="0.9"/>
<path d="M173.759 148.397H179.426V160.881H194.595V148.397H200.096V178.715H194.595V165.907H179.426V178.715H173.759V148.397Z" fill="#FF4231" fill-opacity="0.9"/>
<path d="M224.766 166.069L219.932 153.261L215.265 166.069H224.766ZM216.431 148.397H223.599L235.434 178.715H229.433L226.6 171.095H213.431L210.597 178.715H204.763L216.431 148.397Z" fill="#FF4231" fill-opacity="0.9"/>
<path d="M237.102 173.527H238.602C241.269 173.527 243.103 172.554 243.27 168.339C243.436 163.637 243.436 155.207 243.436 148.397H265.94V178.715H260.272V153.423H248.937C248.937 158.287 248.77 164.772 248.77 168.987C248.604 175.959 245.77 178.715 239.602 178.715H237.269V173.527H237.102Z" fill="#FF4231" fill-opacity="0.9"/>
<path d="M273.274 148.397H295.444V153.099H278.775V161.043H294.777V165.745H278.775V173.851H295.277V178.715H273.274V148.397Z" fill="#FF4231" fill-opacity="0.9"/>
<path d="M45.572 214.869C45.572 204.493 51.7396 199.143 60.5743 199.143C68.5755 199.143 73.0762 202.871 74.243 209.194L68.7422 210.005C67.742 206.438 65.4083 204.006 60.5743 204.006C54.74 204.006 51.2395 208.059 51.2395 214.869C51.2395 221.678 54.5733 225.569 60.4076 225.569C65.4083 225.569 67.9087 223.137 68.7422 219.408L74.243 220.219C72.9095 226.704 68.4088 230.271 60.4076 230.271C51.4062 230.271 45.572 224.758 45.572 214.869Z" fill="#FF4231" fill-opacity="0.9"/>
<path d="M93.9132 225.569C100.081 225.569 103.581 221.354 103.581 214.869C103.581 208.384 100.081 204.168 93.9132 204.168C87.7456 204.168 84.245 208.384 84.245 214.869C84.245 221.354 87.7456 225.569 93.9132 225.569ZM78.5775 214.707C78.5775 204.493 84.7451 199.143 93.9132 199.143C103.081 199.143 109.249 204.493 109.249 214.707C109.249 224.92 103.081 230.271 93.9132 230.271C84.9118 230.271 78.5775 225.083 78.5775 214.707Z" fill="#FF4231" fill-opacity="0.9"/>
<path d="M128.418 225.245C132.419 225.245 134.253 223.786 134.253 221.029C134.253 218.111 132.586 216.814 128.418 216.814H120.917V225.245H128.418ZM128.252 212.275C132.086 212.275 133.419 210.653 133.419 208.222C133.419 205.465 132.252 204.168 128.252 204.168H120.751V212.275H128.252ZM115.25 199.629H128.919C135.42 199.629 138.753 202.547 138.753 207.735C138.753 210.816 137.42 213.41 134.253 214.544C137.753 215.355 139.587 217.949 139.587 221.516C139.587 227.028 135.753 229.946 128.919 229.946H115.25V199.629Z" fill="#FF4231" fill-opacity="0.9"/>
<path d="M158.423 214.382C162.423 214.382 164.257 212.761 164.257 209.356C164.257 206.114 162.59 204.331 158.423 204.331H151.255V214.382H158.423ZM145.587 199.629H158.923C166.09 199.629 169.758 202.547 169.758 209.356C169.758 216.166 165.924 219.246 158.923 219.246H151.255V230.108H145.587V199.629Z" fill="#FF4231" fill-opacity="0.9"/>
<path d="M175.259 199.629H197.429V204.331H180.76V212.275H196.762V216.976H180.76V225.083H197.262V229.946H175.259V199.629Z" fill="#FF4231" fill-opacity="0.9"/>
<path d="M203.93 199.629H211.764L220.932 220.705L230.1 199.629H237.935V229.946H232.434V206.114L223.266 226.866H218.432L209.097 205.952V229.946H203.93V199.629Z" fill="#FF4231" fill-opacity="0.9"/>
<path d="M245.27 199.629H267.44V204.331H250.937V212.275H266.94V216.976H250.937V225.083H267.44V229.946H245.27V199.629Z" fill="#FF4231" fill-opacity="0.9"/>
<path d="M274.107 199.629H279.608V212.113H294.777V199.629H300.444V229.946H294.777V217.138H279.608V229.946H274.107V199.629Z" fill="#FF4231" fill-opacity="0.9"/>
<path d="M307.779 199.629H313.28V212.113H328.449V199.629H334.117V229.946H328.449V217.138H313.28V229.946H307.779V199.629Z" fill="#FF4231" fill-opacity="0.9"/>
<path d="M355.453 225.569C361.621 225.569 365.121 221.354 365.121 214.869C365.121 208.384 361.621 204.168 355.453 204.168C349.285 204.168 345.785 208.384 345.785 214.869C345.785 221.354 349.285 225.569 355.453 225.569ZM340.117 214.707C340.117 204.493 346.285 199.143 355.453 199.143C364.621 199.143 370.789 204.493 370.789 214.707C370.789 224.92 364.621 230.271 355.453 230.271C346.285 230.271 340.117 225.083 340.117 214.707Z" fill="#FF4231" fill-opacity="0.9"/>
<path d="M376.79 199.629H397.459V204.655H382.29V229.946H376.79V199.629Z" fill="#FF4231" fill-opacity="0.9"/>
<path d="M414.962 225.569C421.13 225.569 424.631 221.354 424.631 214.869C424.631 208.384 421.13 204.168 414.962 204.168C408.795 204.168 405.294 208.384 405.294 214.869C405.294 221.354 408.795 225.569 414.962 225.569ZM399.627 214.707C399.627 204.493 405.794 199.143 414.962 199.143C424.131 199.143 430.298 204.493 430.298 214.707C430.298 224.92 424.131 230.271 414.962 230.271C405.794 230.271 399.627 225.083 399.627 214.707Z" fill="#FF4231" fill-opacity="0.9"/>
<path d="M46.906 250.86H52.4068V273.72L67.9092 250.86H73.9101V281.178H68.4093V258.156L52.7402 281.178H46.906V250.86Z" fill="#FF4231" fill-opacity="0.9"/>
<path d="M79.9107 266.1C79.9107 255.724 86.0783 250.374 94.913 250.374C102.914 250.374 107.415 254.103 108.582 260.426L103.081 261.236C102.081 257.67 99.7471 255.238 94.913 255.238C89.0788 255.238 85.5783 259.291 85.5783 266.1C85.5783 272.909 88.9121 276.801 94.7463 276.801C99.7471 276.801 102.247 274.369 103.081 270.64L108.582 271.612C107.248 278.098 102.748 281.664 94.7463 281.664C85.7449 281.664 79.9107 275.99 79.9107 266.1Z" fill="#FF4231" fill-opacity="0.9"/>
<path d="M114.416 250.86H120.084V263.344H125.085L133.586 250.86H140.087L129.752 265.452L140.587 281.178H133.586L124.918 268.208H120.084V281.178H114.416V250.86Z" fill="#FF4231" fill-opacity="0.9"/>
<path d="M146.088 276.152H148.921C151.422 276.152 152.755 275.503 153.756 274.044L141.754 250.86H148.088L156.756 268.37L164.757 250.86H170.591L159.756 274.369C157.589 279.232 155.256 281.178 149.922 281.178H146.588V276.152H146.088Z" fill="#FF4231" fill-opacity="0.9"/>
<path d="M171.591 266.1C171.591 255.724 177.759 250.374 186.594 250.374C194.595 250.374 199.096 254.103 200.262 260.426L194.762 261.236C193.761 257.67 191.428 255.238 186.594 255.238C180.759 255.238 177.259 259.291 177.259 266.1C177.259 272.909 180.593 276.801 186.427 276.801C191.428 276.801 193.928 274.369 194.762 270.64L200.262 271.612C198.929 278.098 194.428 281.664 186.427 281.664C177.426 281.664 171.591 275.99 171.591 266.1Z" fill="#FF4231" fill-opacity="0.9"/>
<path d="M204.763 266.1C204.763 255.724 210.931 250.374 219.765 250.374C227.767 250.374 232.267 254.103 233.434 260.426L227.933 261.236C226.933 257.67 224.599 255.238 219.765 255.238C213.931 255.238 210.431 259.291 210.431 266.1C210.431 272.909 213.764 276.801 219.599 276.801C224.599 276.801 227.1 274.369 227.933 270.64L233.434 271.612C232.101 278.098 227.6 281.664 219.599 281.664C210.597 281.664 204.763 275.99 204.763 266.1Z" fill="#FF4231" fill-opacity="0.9"/>
<path d="M247.603 255.886H236.435V250.86H264.105V255.886H253.104V281.178H247.603V255.886Z" fill="#FF4231" fill-opacity="0.9"/>
<path d="M281.775 276.476C285.776 276.476 287.61 275.017 287.61 272.261C287.61 269.343 285.943 268.046 281.775 268.046H274.274V276.476H281.775ZM281.609 263.668C285.443 263.668 286.776 262.047 286.776 259.615C286.776 256.859 285.609 255.562 281.609 255.562H274.274V263.668H281.609ZM268.773 250.86H282.442C288.943 250.86 292.277 253.779 292.277 258.967C292.277 262.047 290.944 264.641 287.776 265.776C291.277 266.586 293.111 269.181 293.111 272.747C293.111 278.26 289.277 281.178 282.442 281.178H268.773V250.86Z" fill="#FF4231" fill-opacity="0.9"/>
<path d="M315.78 268.532L310.946 255.724L306.279 268.532H315.78ZM307.446 250.86H314.613L326.448 281.178H320.448L317.614 273.558H304.445L301.611 281.178H295.777L307.446 250.86Z" fill="#FF4231" fill-opacity="0.9"/>
<path d="M1192.08 50.7974H1180.91V45.7715H1208.58V50.7974H1197.58V76.0889H1192.08V50.7974Z" fill="#FF4231" fill-opacity="0.9"/>
<path d="M1213.25 45.7715H1218.75V58.2552H1233.92V45.7715H1239.59V76.0889H1233.92V63.281H1218.75V76.0889H1213.25V45.7715Z" fill="#FF4231" fill-opacity="0.9"/>
<path d="M1246.92 45.7715H1269.09V50.6352H1252.42V58.4173H1268.43V63.1189H1252.42V71.2252H1268.93V76.0889H1246.92V45.7715Z" fill="#FF4231" fill-opacity="0.9"/>
<path d="M1284.93 63.9295V45.7715H1290.6V64.0917C1290.6 69.2797 1292.93 71.7115 1298.26 71.7115C1303.6 71.7115 1305.76 69.2797 1305.76 64.0917V45.7715H1311.43V63.9295C1311.43 72.5222 1307.1 76.4132 1298.43 76.4132C1289.76 76.4132 1284.93 72.6843 1284.93 63.9295Z" fill="#FF4231" fill-opacity="0.9"/>
<path d="M1331.1 60.5249C1335.27 60.5249 1336.94 58.7415 1336.94 55.499C1336.94 51.9322 1335.27 50.4731 1331.1 50.4731H1323.93V60.3628H1331.1V60.5249ZM1318.43 45.7715H1331.77C1338.6 45.7715 1342.6 48.6897 1342.6 55.499C1342.6 60.2006 1340.44 63.1189 1336.6 64.4159L1343.94 76.0889H1337.6L1330.94 65.2265H1324.1V76.0889H1318.43V45.7715Z" fill="#FF4231" fill-opacity="0.9"/>
<path d="M1365.77 63.4431L1360.94 50.6352L1356.27 63.4431H1365.77ZM1357.44 45.7715H1364.61L1376.44 76.0889H1370.44L1367.61 68.469H1354.44L1351.61 76.0889H1345.77L1357.44 45.7715Z" fill="#FF4231" fill-opacity="0.9"/>
<path d="M1381.11 45.7715H1386.78V71.063H1402.95V76.0889H1381.11V45.7715Z" fill="#FF4231" fill-opacity="0.9"/>
<path d="M1163.08 97.0029H1157.41V127.32H1163.08V97.0029Z" fill="#FF4231" fill-opacity="0.9"/>
<path d="M1170.24 97.0029H1176.58L1192.25 119.7V97.0029H1197.75V127.32H1191.25L1175.75 105.109V127.32H1170.24V97.0029Z" fill="#FF4231" fill-opacity="0.9"/>
<path d="M1216.75 122.457C1223.75 122.457 1226.92 118.728 1226.92 112.243C1226.92 105.271 1223.59 102.029 1216.75 102.029H1210.75V122.457H1216.75ZM1205.08 97.0029H1216.92C1227.09 97.0029 1232.59 102.191 1232.59 112.081C1232.59 122.132 1227.09 127.32 1216.42 127.32H1204.92V97.0029H1205.08Z" fill="#FF4231" fill-opacity="0.9"/>
<path d="M1238.25 115.323V97.0029H1243.92V115.323C1243.92 120.511 1246.26 122.943 1251.59 122.943C1256.92 122.943 1259.09 120.511 1259.09 115.323V97.0029H1264.76V115.161C1264.76 123.754 1260.42 127.645 1251.76 127.645C1243.09 127.645 1238.25 123.916 1238.25 115.323Z" fill="#FF4231" fill-opacity="0.9"/>
<path d="M1270.26 119.214L1275.93 118.241C1276.76 121.322 1278.76 123.105 1283.6 123.105C1288.43 123.105 1290.43 121.484 1290.43 118.89C1290.43 116.782 1289.26 115.647 1285.76 114.999L1280.43 114.026C1274.59 113.053 1271.43 110.784 1271.43 105.434C1271.43 99.7591 1276.26 96.3545 1283.6 96.3545C1291.26 96.3545 1294.93 99.597 1295.93 104.785L1290.26 105.758C1289.76 103.164 1287.93 101.056 1283.43 101.056C1279.43 101.056 1277.09 102.84 1277.09 105.271C1277.09 107.379 1278.43 108.514 1282.09 109.162L1287.93 110.135C1293.26 111.108 1296.1 113.54 1296.1 118.566C1296.1 124.402 1291.26 127.645 1283.43 127.645C1275.59 127.645 1271.26 125.051 1270.26 119.214Z" fill="#FF4231" fill-opacity="0.9"/>
<path d="M1310.1 102.191H1299.1V97.0029H1326.77V102.191H1315.77V127.32H1310.1V102.191Z" fill="#FF4231" fill-opacity="0.9"/>
<path d="M1344.1 111.756C1348.27 111.756 1349.94 109.973 1349.94 106.73C1349.94 103.164 1348.27 101.705 1344.1 101.705H1336.94V111.594H1344.1V111.756ZM1331.27 97.0029H1344.6C1351.44 97.0029 1355.44 99.9212 1355.44 106.73C1355.44 111.432 1353.27 114.35 1349.44 115.647L1356.77 127.32H1350.44L1343.77 116.458H1336.94V127.32H1331.27V97.0029Z" fill="#FF4231" fill-opacity="0.9"/>
<path d="M1367.61 97.0029H1361.94V127.32H1367.61V97.0029Z" fill="#FF4231" fill-opacity="0.9"/>
<path d="M1392.11 114.837L1387.28 102.029L1382.61 114.837H1392.11ZM1383.78 97.0029H1390.95L1402.78 127.32H1396.78L1393.95 119.7H1380.78L1377.94 127.32H1372.11L1383.78 97.0029Z" fill="#FF4231" fill-opacity="0.9"/>
<path d="M1407.45 97.0029H1413.11V122.294H1429.28V127.32H1407.45V97.0029Z" fill="#FF4231" fill-opacity="0.9"/>
<path d="M1165.41 174.012C1169.41 174.012 1171.24 172.553 1171.24 169.797C1171.24 166.879 1169.58 165.582 1165.41 165.582H1157.91V174.012H1165.41ZM1165.24 161.042C1169.08 161.042 1170.41 159.421 1170.41 156.989C1170.41 154.233 1169.24 152.936 1165.24 152.936H1157.74V161.042H1165.24ZM1152.41 148.234H1166.08C1172.58 148.234 1175.91 151.153 1175.91 156.341C1175.91 159.421 1174.58 162.015 1171.41 163.15C1174.91 163.96 1176.75 166.555 1176.75 170.121C1176.75 175.634 1172.91 178.552 1166.08 178.552H1152.41V148.234Z" fill="#FF4231" fill-opacity="0.9"/>
<path d="M1188.25 148.234H1182.58V178.552H1188.25V148.234Z" fill="#FF4231" fill-opacity="0.9"/>
<path d="M1195.58 148.234H1217.75V153.098H1201.08V161.042H1217.09V165.744H1201.08V173.85H1217.59V178.552H1195.58V148.234Z" fill="#FF4231" fill-opacity="0.9"/>
<path d="M1224.25 148.234H1230.59L1246.26 171.094V148.234H1251.59V178.552H1245.26L1229.75 156.341V178.552H1224.25V148.234Z" fill="#FF4231" fill-opacity="0.9"/>
<path d="M1258.93 148.234H1265.26L1280.93 171.094V148.234H1286.43V178.552H1279.93L1264.43 156.341V178.552H1258.93V148.234Z" fill="#FF4231" fill-opacity="0.9"/>
<path d="M1299.43 148.234H1293.76V178.552H1299.43V148.234Z" fill="#FF4231" fill-opacity="0.9"/>
<path d="M1323.94 166.068L1319.1 153.26L1314.43 166.068H1323.94ZM1315.6 148.234H1322.77L1334.6 178.552H1328.6L1325.77 170.932H1312.6L1309.77 178.552H1303.93L1315.6 148.234Z" fill="#FF4231" fill-opacity="0.9"/>
<path d="M1339.44 148.234H1344.94V173.526H1361.11V178.552H1339.44V148.234Z" fill="#FF4231" fill-opacity="0.9"/>
<path d="M1389.61 174.175C1395.78 174.175 1399.28 169.96 1399.28 163.475C1399.28 156.99 1395.78 152.775 1389.61 152.775C1383.44 152.775 1379.94 156.99 1379.94 163.475C1379.94 169.96 1383.44 174.175 1389.61 174.175ZM1374.28 163.475C1374.28 153.261 1380.44 147.911 1389.61 147.911C1398.61 147.911 1404.95 153.261 1404.95 163.475C1404.95 173.689 1398.78 179.039 1389.61 179.039C1380.44 179.039 1374.28 173.689 1374.28 163.475Z" fill="#FF4231" fill-opacity="0.9"/>
<path d="M1410.95 148.234H1433.12V153.098H1416.45V161.691H1432.45V166.392H1416.45V178.552H1410.95V148.234Z" fill="#FF4231" fill-opacity="0.9"/>
<path d="M1098.9 214.869C1098.9 204.493 1105.07 199.143 1113.9 199.143C1121.9 199.143 1126.4 202.871 1127.57 209.194L1122.07 210.005C1121.07 206.438 1118.74 204.006 1113.9 204.006C1108.07 204.006 1104.57 208.059 1104.57 214.869C1104.57 221.678 1107.9 225.569 1113.74 225.569C1118.74 225.569 1121.24 223.137 1122.07 219.408L1127.57 220.381C1126.24 226.866 1121.74 230.433 1113.74 230.433C1104.73 230.271 1098.9 224.758 1098.9 214.869Z" fill="#FF4231" fill-opacity="0.9"/>
<path d="M1147.41 225.569C1153.58 225.569 1157.08 221.354 1157.08 214.869C1157.08 208.384 1153.58 204.168 1147.41 204.168C1141.24 204.168 1137.74 208.384 1137.74 214.869C1137.74 221.354 1141.24 225.569 1147.41 225.569ZM1132.07 214.707C1132.07 204.493 1138.24 199.143 1147.41 199.143C1156.41 199.143 1162.74 204.493 1162.74 214.707C1162.74 224.92 1156.58 230.271 1147.41 230.271C1138.24 230.271 1132.07 224.92 1132.07 214.707Z" fill="#FF4231" fill-opacity="0.9"/>
<path d="M1168.74 199.629H1174.91L1190.58 222.326V199.629H1196.08V229.946H1189.58L1174.08 207.573V229.946H1168.74V199.629Z" fill="#FF4231" fill-opacity="0.9"/>
<path d="M1211.75 204.655H1200.58V199.629H1228.25V204.655H1217.25V229.946H1211.75V204.655Z" fill="#FF4231" fill-opacity="0.9"/>
<path d="M1232.92 199.629H1255.09V204.331H1238.42V212.275H1254.42V216.976H1238.42V225.083H1254.92V229.946H1232.92V199.629Z" fill="#FF4231" fill-opacity="0.9"/>
<path d="M1261.59 199.629H1269.43L1278.59 220.705L1287.76 199.629H1295.6V229.946H1290.1V206.114L1280.93 226.704H1276.09L1266.76 205.952V229.946H1261.59V199.629Z" fill="#FF4231" fill-opacity="0.9"/>
<path d="M1315.77 214.382C1319.77 214.382 1321.6 212.761 1321.6 209.356C1321.6 206.114 1319.93 204.331 1315.77 204.331H1308.6V214.382H1315.77ZM1302.93 199.629H1316.27C1323.43 199.629 1327.1 202.547 1327.1 209.356C1327.1 216.166 1323.27 219.246 1316.27 219.246H1308.6V230.108H1302.93V199.629Z" fill="#FF4231" fill-opacity="0.9"/>
<path d="M1346.61 225.569C1352.77 225.569 1356.27 221.354 1356.27 214.869C1356.27 208.384 1352.77 204.168 1346.61 204.168C1340.44 204.168 1336.94 208.384 1336.94 214.869C1336.94 221.354 1340.44 225.569 1346.61 225.569ZM1331.27 214.707C1331.27 204.493 1337.44 199.143 1346.61 199.143C1355.61 199.143 1361.94 204.493 1361.94 214.707C1361.94 224.92 1355.77 230.271 1346.61 230.271C1337.44 230.271 1331.27 224.92 1331.27 214.707Z" fill="#FF4231" fill-opacity="0.9"/>
<path d="M1380.61 214.22C1384.78 214.22 1386.44 212.437 1386.44 209.194C1386.44 205.628 1384.78 204.168 1380.61 204.168H1373.44V214.058H1380.61V214.22ZM1367.94 199.629H1381.28C1388.11 199.629 1392.11 202.547 1392.11 209.356C1392.11 214.058 1389.94 216.976 1386.11 218.273L1393.45 229.946H1387.11L1380.44 219.084H1373.61V229.946H1367.94V199.629Z" fill="#FF4231" fill-opacity="0.9"/>
<path d="M1415.28 217.301L1410.45 204.493L1405.78 217.301H1415.28ZM1406.95 199.629H1414.12L1425.95 229.946H1419.95L1417.12 222.326H1403.95L1401.11 229.946H1395.28L1406.95 199.629Z" fill="#FF4231" fill-opacity="0.9"/>
<path d="M1443.45 214.22C1447.62 214.22 1449.29 212.437 1449.29 209.194C1449.29 205.628 1447.62 204.168 1443.45 204.168H1436.29V214.058H1443.45V214.22ZM1430.62 199.629H1443.95C1450.79 199.629 1454.79 202.547 1454.79 209.356C1454.79 214.058 1452.62 216.976 1448.79 218.273L1456.12 229.946H1449.79L1443.12 219.084H1436.29V229.946H1430.62V199.629Z" fill="#FF4231" fill-opacity="0.9"/>
<path d="M1469.12 218.435L1456.79 199.629H1463.29L1471.96 213.247L1480.63 199.629H1487.13L1474.79 218.435V229.946H1469.12V218.435Z" fill="#FF4231" fill-opacity="0.9"/>
<path d="M1271.76 268.532L1266.93 255.724L1262.26 268.532H1271.76ZM1263.43 250.86H1270.59L1282.43 281.178H1276.43L1273.59 273.558H1260.42L1257.59 281.178H1251.76L1263.43 250.86Z" fill="#FF4231" fill-opacity="0.9"/>
<path d="M1299.76 265.614C1303.93 265.614 1305.6 263.83 1305.6 260.588C1305.6 257.021 1303.93 255.562 1299.76 255.562H1292.6V265.452H1299.76V265.614ZM1287.1 250.86H1300.43C1307.27 250.86 1311.27 253.779 1311.27 260.588C1311.27 265.289 1309.1 268.208 1305.27 269.505L1312.6 281.178H1306.1L1299.43 270.315H1292.6V281.178H1286.93V250.86H1287.1Z" fill="#FF4231" fill-opacity="0.9"/>
<path d="M1325.6 255.886H1314.6V250.86H1342.27V255.886H1331.27V281.178H1325.6V255.886Z" fill="#FF4231" fill-opacity="0.9"/>
</g>
<defs>
<clipPath id="clip0_18_96319">
<rect width="1570" height="326.892" fill="white"/>
</clipPath>
</defs>
</svg>
